<svg xmlns="http://www.w3.org/2000/svg" style="display: none;">

  <!-- Email Icon -->
  <symbol id="icon-email" viewBox="0 0 24 24">
    <path fill="currentColor" d="M20 4H4c-1.1 0-1.99.9-1.99 2L2 18c0 1.1.9 2 2 2h16c1.1 0 2-.9 2-2V6c0-1.1-.9-2-2-2zm0 4l-8 5-8-5V6l8 5 8-5v2z"/>
  </symbol>

  <!-- LinkedIn Icon -->
  <symbol id="icon-linkedin" viewBox="0 0 24 24">
    <path fill="currentColor" d="M19 3a2 2 0 0 1 2 2v14a2 2 0 0 1-2 2H5a2 2 0 0 1-2-2V5a2 2 0 0 1 2-2h14m-.5 15.5v-5.3a3.26 3.26 0 0 0-3.26-3.26c-.85 0-1.84.52-2.32 1.3v-1.11h-2.79v8.37h2.79v-4.93c0-.77.62-1.4 1.39-1.4a1.4 1.4 0 0 1 1.4 1.4v4.93h2.79M6.88 8.56a1.68 1.68 0 0 0 1.68-1.68c0-.93-.75-1.69-1.68-1.69a1.69 1.69 0 0 0-1.69 1.69c0 .93.76 1.68 1.69 1.68m1.39 9.94v-8.37H5.5v8.37h2.77z"/>
  </symbol>

  <!-- YouTube Icon -->
  <symbol id="icon-youtube" viewBox="0 0 24 24">
    <path fill="currentColor" d="M10 15l5.19-3L10 9v6m11.56-7.83c.13.47.22 1.1.28 1.9.07.8.1 1.49.1 2.09L22 12c0 2.19-.16 3.8-.44 4.83-.25.9-.83 1.48-1.73 1.73-.47.13-1.33.22-2.65.28-1.3.07-2.49.1-3.59.1L12 19c-4.19 0-6.8-.16-7.83-.44-.9-.25-1.48-.83-1.73-1.73-.13-.47-.22-1.1-.28-1.9-.07-.8-.1-1.49-.1-2.09L2 12c0-2.19.16-3.8.44-4.83.25-.9.83-1.48 1.73-1.73.47-.13 1.33-.22 2.65-.28 1.3-.07 2.49-.1 3.59-.1L12 5c4.19 0 6.8.16 7.83.44.9.25 1.48.83 1.73 1.73z"/>
  </symbol>

  <!-- Webinar Icon -->
  <symbol id="icon-webinar" viewBox="0 0 24 24">
    <path fill="currentColor" d="M21 3H3c-1.11 0-2 .89-2 2v12a2 2 0 0 0 2 2h5v2h8v-2h5c1.1 0 2-.9 2-2V5a2 2 0 0 0-2-2zm0 14H3V5h18v12zm-5-6l-7 4V7l7 4z"/>
  </symbol>

  <!-- Calendar Icon -->
  <symbol id="icon-calendar" viewBox="0 0 24 24">
    <path fill="currentColor" d="M19 4h-1V2h-2v2H8V2H6v2H5c-1.11 0-1.99.9-1.99 2L3 20a2 2 0 0 0 2 2h14c1.1 0 2-.9 2-2V6c0-1.1-.9-2-2-2zm0 16H5V10h14v10zM9 14H7v-2h2v2zm4 0h-2v-2h2v2zm4 0h-2v-2h2v2zm-8 4H7v-2h2v2zm4 0h-2v-2h2v2zm4 0h-2v-2h2v2z"/>
  </symbol>

  <!-- Rocket Icon -->
  <symbol id="icon-rocket" viewBox="0 0 24 24">
    <path fill="currentColor" d="M2.81 14.12L5.64 11.29L8.17 10.79C8.06 11.34 8 11.91 8 12.5C8 13.09 8.06 13.66 8.17 14.21L5.64 13.71L2.81 16.54L3.65 17.38L6.47 14.56L9.11 15.09C9.66 16.11 10.5 16.94 11.5 17.5L11 20.14L8.17 22.97L9 23.81L11.83 21L12.33 18.47C12.88 18.58 13.45 18.64 14.04 18.64C14.63 18.64 15.2 18.58 15.75 18.47L16.25 21L19.08 23.81L19.92 22.97L17.09 20.14L16.59 17.5C17.59 16.94 18.43 16.11 18.98 15.09L21.62 14.56L24.45 17.38L25.28 16.54L22.45 13.71L19.92 14.21C20.03 13.66 20.09 13.09 20.09 12.5C20.09 11.91 20.03 11.34 19.92 10.79L22.45 11.29L25.28 8.46L24.45 7.62L21.62 10.44L18.98 9.91C18.43 8.89 17.59 8.06 16.59 7.5L17.09 4.86L19.92 2.03L19.08 1.19L16.25 4L15.75 6.53C15.2 6.42 14.63 6.36 14.04 6.36C13.45 6.36 12.88 6.42 12.33 6.53L11.83 4L9 1.19L8.17 2.03L11 4.86L11.5 7.5C10.5 8.06 9.66 8.89 9.11 9.91L6.47 10.44L3.65 7.62L2.81 8.46L5.64 11.29L8.17 10.79M14.04 9.09C16.27 9.09 18.09 10.91 18.09 13.14C18.09 15.37 16.27 17.19 14.04 17.19C11.81 17.19 9.99 15.37 9.99 13.14C9.99 10.91 11.81 9.09 14.04 9.09Z"/>
  </symbol>

  <!-- Bolt/Lightning Icon -->
  <symbol id="icon-bolt" viewBox="0 0 24 24">
    <path fill="currentColor" d="M11 21h-1l1-7H7.5c-.58 0-.57-.32-.38-.66.19-.34.05-.08.07-.12C8.48 10.94 10.42 7.54 13 3h1l-1 7h3.5c.49 0 .56.33.47.51l-.07.15C12.96 17.55 11 21 11 21z"/>
  </symbol>

  <!-- Trophy Icon -->
  <symbol id="icon-trophy" viewBox="0 0 24 24">
    <path fill="currentColor" d="M20 7h-5V4c0-1.1-.9-2-2-2h-2c-1.1 0-2 .9-2 2v3H4c-1.1 0-2 .9-2 2v11c0 1.1.9 2 2 2h16c1.1 0 2-.9 2-2V9c0-1.1-.9-2-2-2zM9 4h6v3H9V4zm11 16H4V9h5v1c0 1.1.9 2 2 2h2c1.1 0 2-.9 2-2V9h5v11zm-9-6c-1.66 0-3-1.34-3-3h2c0 .55.45 1 1 1s1-.45 1-1h2c0 1.66-1.34 3-3 3z"/>
  </symbol>

  <!-- Team/Group Icon -->
  <symbol id="icon-team" viewBox="0 0 24 24">
    <path fill="currentColor" d="M16 11c1.66 0 2.99-1.34 2.99-3S17.66 5 16 5c-1.66 0-3 1.34-3 3s1.34 3 3 3zm-8 0c1.66 0 2.99-1.34 2.99-3S9.66 5 8 5C6.34 5 5 6.34 5 8s1.34 3 3 3zm0 2c-2.33 0-7 1.17-7 3.5V19h14v-2.5c0-2.33-4.67-3.5-7-3.5zm8 0c-.29 0-.62.02-.97.05 1.16.84 1.97 1.97 1.97 3.45V19h6v-2.5c0-2.33-4.67-3.5-7-3.5z"/>
  </symbol>

  <!-- Check/Checkmark Icon -->
  <symbol id="icon-check" viewBox="0 0 24 24">
    <path fill="currentColor" d="M9 16.17L4.83 12l-1.42 1.41L9 19 21 7l-1.41-1.41L9 16.17z"/>
  </symbol>

  <!-- Arrow Up Icon -->
  <symbol id="icon-arrow-up" viewBox="0 0 24 24">
    <path fill="currentColor" d="M7.41 15.41L12 10.83l4.59 4.58L18 14l-6-6-6 6 1.41 1.41z"/>
  </symbol>

  <!-- Arrow Down Icon -->
  <symbol id="icon-arrow-down" viewBox="0 0 24 24">
    <path fill="currentColor" d="M7.41 8.59L12 13.17l4.59-4.58L18 10l-6 6-6-6 1.41-1.41z"/>
  </symbol>

  <!-- Arrow Left Icon -->
  <symbol id="icon-arrow-left" viewBox="0 0 24 24">
    <path fill="currentColor" d="M15.41 16.59L10.83 12l4.58-4.59L14 6l-6 6 6 6 1.41-1.41z"/>
  </symbol>

  <!-- Arrow Right Icon -->
  <symbol id="icon-arrow-right" viewBox="0 0 24 24">
    <path fill="currentColor" d="M8.59 16.59L13.17 12 8.59 7.41 10 6l6 6-6 6-1.41-1.41z"/>
  </symbol>

  <!-- Star Icon -->
  <symbol id="icon-star" viewBox="0 0 24 24">
    <path fill="currentColor" d="M12 17.27L18.18 21l-1.64-7.03L22 9.24l-7.19-.61L12 2 9.19 8.63 2 9.24l5.46 4.73L5.82 21 12 17.27z"/>
  </symbol>

  <!-- Book Icon -->
  <symbol id="icon-book" viewBox="0 0 24 24">
    <path fill="currentColor" d="M18 2H6c-1.1 0-2 .9-2 2v16c0 1.1.9 2 2 2h12c1.1 0 2-.9 2-2V4c0-1.1-.9-2-2-2zM6 4h5v8l-2.5-1.5L6 12V4z"/>
  </symbol>

  <!-- Code Icon -->
  <symbol id="icon-code" viewBox="0 0 24 24">
    <path fill="currentColor" d="M9.4 16.6L4.8 12l4.6-4.6L8 6l-6 6 6 6 1.4-1.4zm5.2 0l4.6-4.6-4.6-4.6L16 6l6 6-6 6-1.4-1.4z"/>
  </symbol>

  <!-- Play Icon -->
  <symbol id="icon-play" viewBox="0 0 24 24">
    <path fill="currentColor" d="M8 5v14l11-7L8 5z"/>
  </symbol>

  <!-- Close/X Icon -->
  <symbol id="icon-close" viewBox="0 0 24 24">
    <path fill="currentColor" d="M19 6.41L17.59 5 12 10.59 6.41 5 5 6.41 10.59 12 5 17.59 6.41 19 12 13.41 17.59 19 19 17.59 13.41 12 19 6.41z"/>
  </symbol>

  <!-- Menu/Hamburger Icon -->
  <symbol id="icon-menu" viewBox="0 0 24 24">
    <path fill="currentColor" d="M3 18h18v-2H3v2zm0-5h18v-2H3v2zm0-7v2h18V6H3z"/>
  </symbol>

</svg>
