<svg width="512" height="512" viewBox="0 0 512 512" xmlns="http://www.w3.org/2000/svg">
  <defs>
    <!-- Gold gradient for S logo (from your brand) -->
    <linearGradient id="logoGradient" x1="0%" y1="0%" x2="100%" y2="100%">
      <stop offset="0%" style="stop-color:#fff3b0;stop-opacity:1" />
      <stop offset="40%" style="stop-color:#ffd700;stop-opacity:1" />
      <stop offset="100%" style="stop-color:#e6ac00;stop-opacity:1" />
    </linearGradient>

    <!-- Glass background gradient (matches header) -->
    <linearGradient id="glassGradient" x1="0%" y1="0%" x2="100%" y2="100%">
      <stop offset="0%" style="stop-color:rgb(10,10,10);stop-opacity:0.95" />
      <stop offset="100%" style="stop-color:rgb(26,26,26);stop-opacity:0.98" />
    </linearGradient>

    <!-- Radial gradient for vignette effect (matches app hero) -->
    <radialGradient id="vignetteGradient" cx="50%" cy="50%" r="70%">
      <stop offset="0%" style="stop-color:rgb(40,40,40);stop-opacity:1" />
      <stop offset="100%" style="stop-color:rgb(12,12,12);stop-opacity:1" />
    </radialGradient>

    <!-- Gold glow filter for S -->
    <filter id="goldGlow" x="-50%" y="-50%" width="200%" height="200%">
      <feGaussianBlur stdDeviation="8" result="blur1"/>
      <feFlood flood-color="#ffd700" flood-opacity="0.5" result="color1"/>
      <feComposite in="color1" in2="blur1" operator="in" result="glow1"/>
      <feGaussianBlur stdDeviation="16" result="blur2"/>
      <feFlood flood-color="#ffd700" flood-opacity="0.25" result="color2"/>
      <feComposite in="color2" in2="blur2" operator="in" result="glow2"/>
      <feMerge>
        <feMergeNode in="glow2"/>
        <feMergeNode in="glow1"/>
        <feMergeNode in="SourceGraphic"/>
      </feMerge>
    </filter>

    <!-- Shimmer overlay gradient -->
    <linearGradient id="shimmerGradient" x1="0%" y1="0%" x2="100%" y2="100%">
      <stop offset="0%" style="stop-color:rgba(255,255,255,0.03)" />
      <stop offset="25%" style="stop-color:rgba(255,255,255,0.08)" />
      <stop offset="50%" style="stop-color:rgba(255,255,255,0.12)" />
      <stop offset="75%" style="stop-color:rgba(255,255,255,0.06)" />
      <stop offset="100%" style="stop-color:rgba(255,255,255,0.02)" />
    </linearGradient>

    <!-- Gold grid pattern -->
    <pattern id="goldGrid" width="4" height="4" patternUnits="userSpaceOnUse">
      <rect width="4" height="4" fill="transparent"/>
      <rect x="2" width="2" height="4" fill="rgba(255,215,0,0.03)"/>
    </pattern>
  </defs>

  <!-- Base background - solid dark (full bleed) -->
  <rect width="512" height="512" fill="rgb(12,12,12)"/>

  <!-- Radial vignette background -->
  <rect width="512" height="512" fill="url(#vignetteGradient)"/>

  <!-- Glass gradient overlay -->
  <rect width="512" height="512" fill="url(#glassGradient)"/>

  <!-- Gold grid pattern overlay -->
  <rect width="512" height="512" fill="url(#goldGrid)"/>

  <!-- Shimmer highlight overlay -->
  <rect width="512" height="512" fill="url(#shimmerGradient)" opacity="0.5"/>

  <!-- S Logo with gold glow - SMALLER for safe zone (80% area = 10% margin each side) -->
  <!-- Safe zone: content should be within center 80% (51.2px margin on 512px = ~51px) -->
  <g filter="url(#goldGlow)" transform="translate(156, 181) scale(0.98)">
    <path fill="url(#logoGradient)" d="m 68.319973,74.195541 c -10.1561,-2.4384 -19.53678,-14.1028 -14.60495,-26.1795 0.22849,-0.5596 1.41529,-0.3089 8.52184,-0.2537 6.08918,0.048 11.52888,-0.5488 11.56302,0.3527 0.12171,3.2149 1.5487,4.6607 2.56044,5.0736 1.09253,0.4458 18.02736,0.1406 18.95653,-0.5151 2.08614,-1.4721 2.32616,-6.74 -0.73287,-6.7081 -1.89312,0.02 -16.67799,0.1814 -18.72436,-0.1174 -4.04392,-0.5906 -5.59174,-1.5998 -9.49172,-4.1388 -8.07733,-5.2586 -10.56716,-12.6842 -8.96983,-21.2824 0,0 6.23429,-0.1218 10.65117,-0.3702 4.3125,-0.2426 8.14686,-0.3478 8.67115,0.6563 1.02814,1.9692 2.76483,2.6717 3.10468,3.7301 0.29685,0.9245 1.55867,0.8409 5.66127,0.8506 4.30308,0.01 9.54987,0.2463 14.62717,0.6583 6.27192,0.509 12.6068,1.0445 18.1587,14.0921 1.25638,2.9526 -0.0515,7.8243 2.7073,0.8905 0.90675,-2.279 1.36336,-2.0204 15.01264,-2.1387 7.50712,-0.065 13.6493,-0.2358 13.6493,-0.3794 0,-0.1436 -0.28095,-0.8948 -0.62433,-1.6694 -0.34338,-0.7745 -1.02601,-2.3132 -1.51695,-3.4193 -0.49094,-1.1062 -2.06212,-4.9273 -3.49152,-8.4914 -1.4294,-3.5641 -2.85785,-7.0835 -3.17433,-7.8209 -0.3165,-0.7374 -1.22645,-2.9497 -2.02211,-4.9161 -0.79567,-1.9664 -4.04311,-11.298 -3.69363,-11.8832 0.45806,-0.7672 -0.18677,-0.4039 12.33719,-0.4039 9.84423,0 9.65274,0.2474 9.65274,0.2474 1.2078,1.0608 2.78957,6.7896 3.34621,8.0175 0.55721,1.2291 1.27686,2.8379 1.59864,3.5753 0.60465,1.3856 1.79312,3.9863 4.28898,9.3852 0.79543,1.7206 2.34948,5.1395 3.45345,7.5975 2.67446,5.9547 3.04484,6.7526 5.91254,12.737 2.46283,5.1395 2.46283,5.1395 3.20091,3.2464 2.23698,-5.7378 1.98186,-5.7611 4.28454,-5.9522 1.54958,-0.1286 24.51316,0.5478 24.82611,0.0215 0,0 -3.59658,-6.2074 -5.83995,-10.4958 -8.26158,-15.7926 -13.92752,-27.264 -13.81355,-28.2205 0.0424,-0.3553 5.59171,-0.1982 13.73661,-0.1724 11.92585,0.038 11.19138,0.1258 11.45775,0.4407 0.7756,0.9168 5.56816,10.2527 6.3956,11.6158 0.82745,1.363 2.32581,3.9866 3.32968,5.8302 1.00389,1.8435 2.17996,3.9551 2.61353,4.6925 0.43356,0.7375 1.35628,2.3464 2.0505,3.5754 0.6942,1.229 3.48408,6.1562 6.19971,10.9493 2.71564,4.7932 6.57201,11.6309 8.5697,15.1951 1.99772,3.5641 3.98079,6.983 4.40686,7.5975 1.75557,2.532 7.19727,12.8574 7.19727,13.6565 0,1.3504 -1.83096,1.5385 -14.97656,1.5385 -15.12194,0 -11.00005,0.4187 -13.10487,-0.3526 -2.71179,-0.9937 -7.4667,-12.3531 -8.24465,-13.4974 -0.5144,-0.7566 -20.11115,-0.5021 -20.85813,0.1075 -0.30114,0.2457 -4.74222,12.8727 -5.21806,13.1815 -0.51253,0.3326 1.56565,0.3137 -13.12083,0.4695 -14.37638,0.1524 -12.92516,-0.2087 -13.7378,-0.4688 -1.39249,-0.4458 -3.05836,-6.3221 -3.28223,-6.8137 -0.2239,-0.4916 -1.69614,-6.0836 -2.6942,-7.3042 -0.46821,-0.5727 -22.00053,-0.1002 -22.42717,0.3003 -0.496,0.4655 -2.40353,4.9774 -3.53629,7.4508 -3.64758,7.9646 -0.79809,6.4833 -14.18916,6.2169 -7.76415,-0.1544 -10.94417,0.068 -12.66339,-0.4931 -2.37035,-0.7739 -1.49316,-2.8404 -1.7134,-2.3972 -2.97036,5.9771 -32.33817,3.8418 -36.23692,2.9057 z m 12.24087,-53.4938 c -0.64492,-0.5527 -1.86842,-1.6128 -2.71888,-2.3557 C 75.43633,16.24456 64.38796,0.03678 67.54771,0.04452 86.06798,-0.43233 99.07786,-0.17567 111.17029,0.11402 124.04918,18.61385 125.28065,21.72072 123.39177,21.41101 102.80388,21.4105 81.73337,21.98851 80.56087,20.98327 Z"/>
  </g>
</svg>
