<svg width="32" height="32" viewBox="0 0 512 512" xmlns="http://www.w3.org/2000/svg">
  <defs>
    <linearGradient id="g" x1="0%" y1="0%" x2="100%" y2="100%">
      <stop offset="0%" stop-color="#fff3b0"/>
      <stop offset="40%" stop-color="#ffd700"/>
      <stop offset="100%" stop-color="#e6ac00"/>
    </linearGradient>
    <style>
      .light-bg { display: none; }
      @media (prefers-color-scheme: light) {
        .light-bg { display: block; }
      }
    </style>
  </defs>
  <!-- Dark rounded square background, only visible in light mode -->
  <rect class="light-bg" width="512" height="512" rx="112" ry="112" fill="#2a2a2a"/>
  <!-- Gold S logo -->
  <g transform="translate(0,512) scale(0.1,-0.1)" fill="url(#g)" stroke="none">
    <path d="M1417 4961 c-235 -6 -237 -7 -237 -62 0 -98 142 -375 364 -708 163 -243 241 -344 346 -444 160 -153 165 -156 306 -168 164 -15 2609 -12 2636 2 63 34 -46 241 -422 804 -81 121 -171 254 -199 295 -29 41 -82 118 -117 172 -36 53 -72 100 -82 104 -19 10 -2261 14 -2595 5z"/>
    <path d="M1015 3659 c-165 -5 -334 -13 -375 -17 l-74 -7 -10 -45 c-5 -25 -9 -137 -10 -250 0 -181 2 -215 22 -295 86 -342 264 -574 620 -809 238 -157 330 -197 519 -231 72 -12 193 -15 678 -15 675 0 642 4 683 -84 40 -85 29 -222 -24 -285 -38 -45 -98 -60 -289 -70 -175 -10 -613 -17 -838 -13 l-127 2 -49 48 c-54 52 -86 125 -100 224 -4 32 -13 64 -20 71 -9 9 -163 12 -636 13 -701 2 -639 9 -671 -76 -58 -156 -80 -424 -48 -590 72 -379 336 -727 704 -928 90 -49 249 -105 345 -121 39 -7 94 -17 124 -22 127 -21 588 -44 906 -44 422 0 653 19 925 75 280 58 329 76 474 178 328 230 620 711 731 1203 36 162 48 304 43 521 -6 217 -7 223 -96 410 -172 366 -389 600 -646 696 -154 58 -266 75 -646 97 -58 4 -125 8 -150 10 -25 2 -236 8 -470 13 -294 6 -432 12 -447 20 -12 7 -36 32 -52 56 -17 24 -49 58 -71 76 -22 18 -61 61 -87 97 -67 94 -75 97 -328 99 -115 1 -345 -2 -510 -7z"/>
  </g>
</svg>
